<svg width="31" height="40" viewBox="0 0 31 40" fill="none" xmlns="http://www.w3.org/2000/svg">
<path d="M19.9215 36.0784L18.7843 39.9999L11.7646 14.3529L17.8823 5.76465L22.3529 10.6274L19.9215 36.0784Z" fill="#ECB5BE"/>
<path d="M17.8822 5.80392L18.1567 0L10.941 7.09804L11.7646 14.3529L17.8822 5.80392Z" fill="#DB8C99"/>
<path d="M22.3529 10.6275L17.8823 5.80392L18.1568 0L22.3529 10.6275Z" fill="#FFE8E5"/>
<path d="M10.9412 7.09845L8 18.2749L12.4314 36.2749L11.7647 14.3534L10.9412 7.09845Z" fill="#B86B77"/>
<path d="M11.7646 14.3527L18.7843 39.9998L12.4313 36.2743L11.7646 14.3527Z" fill="#DB8C99"/>
<path d="M4.51842 6.87728L4.36842 8L4.1476 7.16137C3.85579 6.05315 3.06058 5.14625 2 4.71212C3.00154 4.07301 3.6714 3.02585 3.83176 1.84864L3.94737 1L4.26799 1.96915C4.57109 2.88534 5.18341 3.66758 6 4.18182C5.18735 4.86416 4.65894 5.82549 4.51842 6.87728Z" fill="#DB8C99"/>
<path d="M29.1332 30.8181L28.9605 32L28.7274 31.1904C28.336 29.8315 27.3244 28.7381 26 28.2424C27.2477 27.5145 28.0975 26.2596 28.3104 24.8308L28.4342 24L28.8011 25.014C29.2014 26.1204 29.9804 27.0493 31 27.6364C29.9875 28.4137 29.3178 29.555 29.1332 30.8181Z" fill="#DB8C99"/>
<path d="M2.51842 36.8773L2.36842 38L2.1476 37.1614C1.85579 36.0532 1.06058 35.1462 0 34.7121C1.00154 34.073 1.6714 33.0259 1.83176 31.8486L1.94737 31L2.26799 31.9692C2.57109 32.8853 3.18341 33.6676 4 34.1818C3.18735 34.8642 2.65894 35.8255 2.51842 36.8773Z" fill="#B86B77"/>
</svg>
