<svg width="152" height="94" viewBox="0 0 152 94" fill="none" xmlns="http://www.w3.org/2000/svg">
<path d="M11.1382 11.5969H2.59022C1.63539 11.5969 1.0361 11.475 0.792312 11.2312C0.548527 10.9874 0.426636 10.3881 0.426636 9.43326V6.72116C0.426636 5.76634 0.548527 5.16705 0.792312 4.92325C1.0361 4.67947 1.63539 4.55758 2.59022 4.55758H27.8226C28.7571 4.55758 29.3564 4.68963 29.6205 4.95373C29.8643 5.19752 29.9861 5.78665 29.9861 6.72116V9.43326C29.9861 10.3881 29.8643 10.9874 29.6205 11.2312C29.3767 11.475 28.7774 11.5969 27.8226 11.5969H19.2441V43.9897C19.2441 44.9445 19.1222 45.5438 18.8784 45.7876C18.6346 46.0314 18.0353 46.1533 17.0805 46.1533H13.3018C12.347 46.1533 11.7477 46.0314 11.5039 45.7876C11.2601 45.5438 11.1382 44.9445 11.1382 43.9897V11.5969ZM40.1323 18.24C45.008 18.24 48.8984 19.7738 51.8035 22.8414C54.282 25.4621 55.5212 28.7227 55.5212 32.6233C55.5212 37.0927 53.9366 40.6986 50.7674 43.4412C47.9639 45.8384 44.3579 47.037 39.9495 47.037C37.1256 47.037 34.4643 46.4072 31.9655 45.1477C29.4871 43.9084 27.5977 42.0801 26.2976 39.6625C25.1802 37.5497 24.6215 35.1322 24.6215 32.4099C24.6215 27.9812 26.2671 24.4159 29.5582 21.7139C31.1428 20.4137 33.0727 19.4691 35.348 18.8799C36.9936 18.4533 38.5883 18.24 40.1323 18.24ZM40.0714 25.0659C37.9586 25.0659 36.1607 25.8074 34.6776 27.2905C33.1946 28.7938 32.4531 30.612 32.4531 32.7451C32.4531 34.7564 33.1946 36.5035 34.6776 37.9865C36.1607 39.4695 37.9586 40.211 40.0714 40.211C42.1842 40.211 43.9821 39.4695 45.4651 37.9865C46.9481 36.5238 47.6896 34.7462 47.6896 32.6537C47.6896 30.5206 46.9481 28.7329 45.4651 27.2905C43.9414 25.8074 42.1435 25.0659 40.0714 25.0659ZM100.743 33.8727C100.824 36.1683 101.414 37.9357 102.511 39.175C103.689 40.4751 105.314 41.1252 107.386 41.1252C109.946 41.1252 111.927 40.1298 113.329 38.1389C113.593 37.7732 113.928 37.5904 114.334 37.5904C114.395 37.5904 114.761 37.6411 115.431 37.7427L118.174 38.1998C118.925 38.3217 119.433 38.4741 119.697 38.6569C119.961 38.8398 120.094 39.1445 120.094 39.5711C120.094 39.9571 119.88 40.4955 119.454 41.1862C119.027 41.8769 118.519 42.5067 117.93 43.0755C115.228 45.7165 111.744 47.037 107.478 47.037C104.796 47.037 102.328 46.4682 100.073 45.3305C97.3708 43.9694 95.4307 41.9175 94.2524 39.175C93.4195 37.245 93.003 35.0814 93.003 32.6842C93.003 29.8807 93.6125 27.3006 94.8314 24.9441C96.0097 22.6281 97.7568 20.9115 100.073 19.7941C102.186 18.758 104.542 18.24 107.143 18.24C111.124 18.24 114.354 19.3675 116.833 21.6225C118.092 22.7805 119.098 24.3041 119.85 26.1934C120.601 28.0828 120.977 30.0229 120.977 32.0138C120.977 32.8061 120.85 33.314 120.596 33.5374C120.342 33.7609 119.748 33.8727 118.814 33.8727H100.743ZM113.786 29.0579C113.481 27.6968 113.003 26.6302 112.353 25.8582C111.114 24.3752 109.438 23.6337 107.325 23.6337C105.68 23.6337 104.303 24.1111 103.196 25.0659C102.089 26.0208 101.363 27.3514 101.017 29.0579H113.786ZM133.315 22.4757C134.351 21.1552 135.356 20.2106 136.332 19.6417C137.916 18.7072 139.745 18.24 141.817 18.24C145.148 18.24 147.769 19.3268 149.679 21.5006C150.471 22.4148 151.025 23.4306 151.34 24.5479C151.654 25.6653 151.812 27.1483 151.812 28.997V43.9897C151.812 44.9445 151.69 45.5438 151.446 45.7876C151.202 46.0314 150.613 46.1533 149.679 46.1533H146.388C145.474 46.1533 144.884 46.0314 144.62 45.7876C144.376 45.5235 144.255 44.9242 144.255 43.9897V31.191C144.255 29.1188 144.011 27.6562 143.523 26.8029C142.711 25.3808 141.228 24.6698 139.074 24.6698C137.124 24.6698 135.676 25.2843 134.732 26.5134C133.787 27.7425 133.315 29.6267 133.315 32.1662V43.9897C133.315 44.9445 133.193 45.5438 132.949 45.7876C132.705 46.0314 132.106 46.1533 131.151 46.1533H127.891C126.956 46.1533 126.367 46.0314 126.123 45.7876C125.879 45.5438 125.757 44.9445 125.757 43.9897V21.2873C125.757 20.3325 125.879 19.7332 126.123 19.4894C126.367 19.2456 126.956 19.1237 127.891 19.1237H131.151C132.106 19.1237 132.705 19.2456 132.949 19.4894C133.193 19.7332 133.315 20.3325 133.315 21.2873V22.4757ZM61.7153 0.386841H65.8759C67.0248 0.386841 67.9562 1.31821 67.9562 2.46713V44.073C67.9562 45.2219 67.0248 46.1533 65.8759 46.1533H61.7153C60.5664 46.1533 59.6351 45.2219 59.6351 44.073V2.46713C59.6351 1.31821 60.5664 0.386841 61.7153 0.386841ZM29.9323 56.5635L28.2229 58.6052C27.5749 59.3975 27.0051 59.7937 26.5135 59.7937C26.2677 59.7937 26.0555 59.7429 25.8767 59.6413C25.6979 59.5397 25.2064 59.1741 24.402 58.5443C23.888 58.1786 23.1171 57.8536 22.0893 57.5692C21.0614 57.2847 20.1118 57.1425 19.2403 57.1425C17.274 57.1425 15.6764 57.6504 14.4474 58.6662C13.3525 59.5601 12.8051 60.5961 12.8051 61.7744C12.8051 62.9121 13.291 63.8415 14.263 64.5627C15.235 65.2839 17.0617 66.0914 19.7431 66.9853C22.2904 67.8182 24.1897 68.5242 25.441 69.1032C26.6923 69.6822 27.843 70.3678 28.8932 71.1601C31.597 73.2323 32.9488 76.1475 32.9488 79.9059C32.9488 84.3956 31.2171 87.9101 27.7537 90.4495C24.8488 92.5624 21.2625 93.6187 16.9947 93.6187C13.5536 93.6187 10.4365 92.8569 7.64343 91.3333C6.14632 90.5206 4.7889 89.5506 3.5711 88.4231C2.35331 87.2956 1.74442 86.4474 1.74442 85.8786C1.74442 85.5129 2.11311 85.005 2.85049 84.3549L5.12965 82.3437C5.86703 81.6936 6.41447 81.3686 6.77198 81.3686C7.21888 81.3686 7.63225 81.5717 8.01211 81.978C9.03998 83.136 9.69914 83.8369 9.98962 84.0807C10.2801 84.3245 10.7605 84.619 11.4309 84.9644C13.1067 85.7973 14.8719 86.2138 16.7265 86.2138C19.0281 86.2138 20.8268 85.5434 22.1228 84.2026C23.2177 83.0852 23.7651 81.8054 23.7651 80.363C23.7651 78.6362 22.9272 77.2344 21.2514 76.1577C20.4469 75.6295 18.3354 74.7966 14.9166 73.6589C11.4308 72.5212 8.86122 71.3125 7.20771 70.0326C4.81681 68.2042 3.62138 65.675 3.62138 62.4448C3.62138 58.0567 5.63238 54.7047 9.65445 52.3887C12.0677 51.0073 14.8272 50.3166 17.9332 50.3166C20.123 50.3166 22.363 50.667 24.6533 51.3679C26.9437 52.0688 28.8039 52.9779 30.2339 54.0952C30.6138 54.3796 30.8037 54.725 30.8037 55.1313C30.8037 55.4157 30.5132 55.8931 29.9323 56.5635ZM45.2313 67.7471V80.881C45.2313 82.6281 45.5361 83.9588 46.1455 84.873C47.141 86.3154 48.6646 87.0366 50.7165 87.0366C52.5449 87.0366 53.9212 86.5185 54.8456 85.4824C55.7699 84.4464 56.2321 82.9126 56.2321 80.881V67.7471C56.2321 66.7923 56.354 66.193 56.5978 65.9492C56.8416 65.7054 57.4307 65.5836 58.3652 65.5836H61.6563C62.5908 65.5836 63.1799 65.7054 63.4237 65.9492C63.6675 66.193 63.7894 66.7923 63.7894 67.7471V82.1609C63.7894 85.5942 62.8244 88.2352 60.8945 90.0839C58.5176 92.3592 55.1351 93.4968 50.7469 93.4968C46.3385 93.4968 42.9459 92.3592 40.569 90.0839C38.639 88.2148 37.674 85.5739 37.674 82.1609V67.7471C37.674 66.7923 37.7959 66.193 38.0397 65.9492C38.2835 65.7054 38.8726 65.5836 39.8071 65.5836H43.0677C44.0226 65.5836 44.6219 65.7054 44.8657 65.9492C45.1094 66.193 45.2313 66.7923 45.2313 67.7471ZM95.8126 72.1048V90.4495C95.8126 91.4044 95.6907 92.0037 95.447 92.2475C95.2032 92.4912 94.614 92.6131 93.6795 92.6131H90.3884C89.4742 92.6131 88.8851 92.4912 88.621 92.2475C88.3772 91.9834 88.2553 91.3841 88.2553 90.4495V72.1048H86.0152C85.101 72.1048 84.5119 71.9829 84.2478 71.7391C84.004 71.475 83.8821 70.8859 83.8821 69.9717V67.7471C83.8821 66.7923 84.004 66.193 84.2478 65.9492C84.4916 65.7054 85.0807 65.5836 86.0152 65.5836H88.2553V58.5443C88.2553 57.5895 88.3772 56.9902 88.621 56.7464C88.8648 56.5026 89.4539 56.3807 90.3884 56.3807H93.6795C94.5937 56.3807 95.1829 56.5026 95.447 56.7464C95.6907 57.0105 95.8126 57.6098 95.8126 58.5443V65.5836H101.093C102.047 65.5836 102.647 65.7054 102.89 65.9492C103.134 66.193 103.256 66.7923 103.256 67.7471V69.9717C103.256 70.9062 103.134 71.4953 102.89 71.7391C102.647 71.9829 102.047 72.1048 101.093 72.1048H95.8126ZM113.42 80.3325C113.502 82.6281 114.091 84.3956 115.188 85.6348C116.366 86.935 117.991 87.5851 120.064 87.5851C122.623 87.5851 124.604 86.5896 126.006 84.5987C126.27 84.233 126.605 84.0502 127.011 84.0502C127.072 84.0502 127.438 84.101 128.108 84.2026L130.851 84.6597C131.603 84.7816 132.111 84.9339 132.375 85.1168C132.639 85.2996 132.771 85.6043 132.771 86.031C132.771 86.4169 132.558 86.9553 132.131 87.646C131.704 88.3368 131.196 88.9665 130.607 89.5354C127.905 92.1764 124.421 93.4968 120.155 93.4968C117.473 93.4968 115.005 92.928 112.75 91.7904C110.048 90.4292 108.108 88.3774 106.93 85.6348C106.097 83.7048 105.68 81.5413 105.68 79.1441C105.68 76.3405 106.29 73.7605 107.509 71.4039C108.687 69.0879 110.434 67.3713 112.75 66.254C114.863 65.2179 117.219 64.6998 119.82 64.6998C123.802 64.6998 127.032 65.8273 129.51 68.0823C130.77 69.2403 131.775 70.764 132.527 72.6533C133.279 74.5426 133.655 76.4827 133.655 78.4736C133.655 79.266 133.528 79.7738 133.274 79.9973C133.02 80.2208 132.425 80.3325 131.491 80.3325H113.42ZM126.463 75.5178C126.158 74.1566 125.681 73.0901 125.031 72.3181C123.791 70.8351 122.115 70.0936 120.003 70.0936C118.357 70.0936 116.981 70.571 115.874 71.5258C114.766 72.4806 114.04 73.8113 113.695 75.5178H126.463ZM72.8102 64.8759H76.9708C78.1197 64.8759 79.0511 65.8073 79.0511 66.9562V90.5328C79.0511 91.6818 78.1197 92.6131 76.9708 92.6131H72.8102C71.6613 92.6131 70.7299 91.6818 70.7299 90.5328V66.9562C70.7299 65.8073 71.6613 64.8759 72.8102 64.8759ZM144.234 93.3066C141.553 93.3066 139.38 91.1333 139.38 88.4525C139.38 85.7717 141.553 83.5985 144.234 83.5985C146.914 83.5985 149.088 85.7717 149.088 88.4525C149.088 91.1333 146.914 93.3066 144.234 93.3066Z" fill="white"/>
<path fill-rule="evenodd" clip-rule="evenodd" d="M87.108 24.6499L87.1148 24.6569C84.6231 24.4305 82.7442 24.8928 81.4781 26.0438C80.212 27.1948 79.6342 28.9912 79.7445 31.4331L79.7419 31.4305C79.7436 31.4838 79.7445 31.5374 79.7445 31.5912C79.7445 31.6326 79.744 31.6739 79.743 31.715L79.7445 31.7135C79.6342 34.1793 80.212 35.9877 81.4781 37.1387C82.6807 38.2319 84.4679 38.7038 86.8397 38.5544C86.9505 38.5423 87.0625 38.534 87.1754 38.5295C87.1904 38.5282 87.2054 38.5269 87.2205 38.5255L87.2181 38.5279C87.2693 38.5263 87.3207 38.5255 87.3723 38.5255C90.0531 38.5255 92.2263 40.6988 92.2263 43.3796C92.2263 46.0604 90.0531 48.2336 87.3723 48.2336C87.1711 48.2336 86.9728 48.2213 86.778 48.1976C84.4369 48.0624 82.6702 48.5367 81.4781 49.6204C80.212 50.7714 79.6342 52.5541 79.7445 54.9686L79.7403 54.9644C79.7431 55.0319 79.7445 55.0997 79.7445 55.1679C79.7445 57.8487 77.5713 60.0219 74.8905 60.0219C72.2097 60.0219 70.0365 57.8487 70.0365 55.1679C70.0365 52.4871 72.2097 50.3139 74.8905 50.3139C74.9488 50.3139 75.0069 50.3148 75.0647 50.3168L75.0616 50.3139C75.0833 50.3158 75.1051 50.3176 75.1267 50.3195C75.2171 50.3237 75.3068 50.3306 75.3958 50.3398C77.7782 50.4981 79.5745 50.0271 80.7847 48.9269C82.0508 47.7759 82.6291 46.0104 82.5198 43.63L82.5248 43.635C82.5205 43.5504 82.5182 43.4652 82.5182 43.3796C82.5182 43.2869 82.5208 43.1947 82.526 43.1033C82.6035 40.715 82.0231 38.9579 80.7847 37.8321C79.5949 36.7505 77.8211 36.2771 75.4632 36.4118C75.3182 36.4289 75.1713 36.4395 75.0227 36.4435C75.016 36.4441 75.0092 36.4447 75.0024 36.4452L75.0037 36.444C74.9661 36.4448 74.9283 36.4452 74.8905 36.4452C72.2097 36.4452 70.0365 34.272 70.0365 31.5912C70.0365 28.9104 72.2097 26.7372 74.8905 26.7372C74.9283 26.7372 74.9661 26.7377 75.0037 26.7385L75.0024 26.7372C75.0092 26.7378 75.016 26.7384 75.0227 26.739C75.1713 26.743 75.3182 26.7536 75.4632 26.7706C77.8211 26.9054 79.5949 26.432 80.7847 25.3504C82.0202 24.2271 82.6008 22.4731 82.5265 20.0884C82.521 19.9939 82.5182 19.8987 82.5182 19.8029C82.5182 17.1221 84.6915 14.9489 87.3723 14.9489C90.0531 14.9489 92.2263 17.1221 92.2263 19.8029C92.2263 22.4837 90.0531 24.6569 87.3723 24.6569C87.2836 24.6569 87.1955 24.6545 87.108 24.6499Z" fill="#B74AFF"/>
</svg>
